<?xml version="1.0" encoding="UTF-8"?><!DOCTYPE svg PUBLIC "-//W3C//DTD SVG 1.1//EN" "http://www.w3.org/Graphics/SVG/1.1/DTD/svg11.dtd"><svg xmlns="http://www.w3.org/2000/svg"><symbol id="icon-arrow-left" viewBox="0 0 22 16">
    <path fill-rule="evenodd" d="M7.293 15.707a1 1 0 1 0 1.414-1.414L3.414 9H21a1 1 0 0 0 0-2H3.414l5.293-5.293A1 1 0 0 0 7.293.293l-7 7A.996.996 0 0 0 0 8m.076.383a.997.997 0 0 0 .217.324l7 7M.076 8.383A.996.996 0 0 1 0 8.009l.076.374z"/>
</symbol><symbol id="icon-arrow-next" viewBox="0 0 8 14">
    <path fill-rule="evenodd" clip-rule="evenodd" d="M.293 13.707a1 1 0 0 1 0-1.414L5.586 7 .293 1.707A1 1 0 0 1 1.707.293l6 6a1 1 0 0 1 0 1.414l-6 6a1 1 0 0 1-1.414 0z"/>
</symbol><symbol id="icon-arrow-prev" viewBox="0 0 8 14">
    <path fill-rule="evenodd" clip-rule="evenodd" d="M7.707.293a1 1 0 0 1 0 1.414L2.414 7l5.293 5.293a1 1 0 1 1-1.414 1.414l-6-6a1 1 0 0 1 0-1.414l6-6a1 1 0 0 1 1.414 0z"/>
</symbol><symbol id="icon-arrow-right" viewBox="0 0 22 16">
    <path fill-rule="evenodd" clip-rule="evenodd" d="M14.707.293a1 1 0 1 0-1.414 1.414L18.586 7H1a1 1 0 0 0 0 2h17.586l-5.293 5.293a1 1 0 0 0 1.414 1.414l7-7A.996.996 0 0 0 22 8m-.076-.383a.997.997 0 0 0-.217-.324l-7-7m7.217 7.324a.996.996 0 0 1 .076.374z"/>
</symbol><symbol id="icon-arrows" viewBox="0 0 12 18">
    <path fill-rule="evenodd" clip-rule="evenodd" d="M6.664 1.128a1 1 0 0 0-1.328 0l-4.5 4a1 1 0 0 0 1.328 1.494L6 3.213l3.836 3.41a1 1 0 1 0 1.328-1.495l-4.5-4zm-4.5 11a1 1 0 0 0-1.328 1.494l4.5 4a1 1 0 0 0 1.328 0l4.5-4a1 1 0 0 0-1.328-1.494L6 15.538l-3.836-3.41z"/>
</symbol><symbol id="icon-dribbble" viewBox="0 0 16 16">
    <path fill-rule="evenodd" clip-rule="evenodd" d="M8 0C3.6 0 0 3.6 0 8s3.6 8 8 8 8-3.6 8-8-3.6-8-8-8zm2.2 7.4s-.2-.6-.3-.8c1.7-.8 2.8-1.7 3.2-2.2.7.9 1.1 2 1.2 3.2-.8-.2-2.6-.5-4.1-.2zM9.1 5.1C8.3 3.7 7.4 2.5 7 1.8c1.9-.5 3.6.1 4.9 1.3-.4.5-1.2 1.3-2.8 2zm-4-2.6c.4.5 1.2 1.7 2 3.2-2.2.5-4.2.6-5.1.6.4-1.6 1.6-3 3.1-3.8zM8 7.3c.1.2.2.4.3.5-2.8.9-4.6 3.2-5.2 4.1-.8-1.1-1.3-2.4-1.3-3.7.9-.1 3.5-.2 6.2-.9zm1 2.2c.7 2 1.1 3.6 1.2 4.4-2.1.7-4.5.3-5.8-.8.4-.7 1.7-2.5 4.6-3.6zm2.9 3.4c-.2-.8-.5-2.2-1.1-3.9 1.1-.2 2.7 0 3.3.2-.3 1.5-1.1 2.8-2.2 3.7z"/>
</symbol><symbol id="icon-email" viewBox="0 0 18 15">
    <path fill-rule="evenodd" clip-rule="evenodd" d="M2.422.267A2.133 2.133 0 0 0 .29 2.4v9.956c0 1.178.955 2.133 2.133 2.133h12.8a2.133 2.133 0 0 0 2.134-2.133V2.4A2.133 2.133 0 0 0 15.222.267h-12.8zM1.712 2.4c0-.393.318-.711.71-.711h12.8c.393 0 .712.318.712.711v9.956a.711.711 0 0 1-.712.71h-12.8a.711.711 0 0 1-.71-.71V2.4zm2.635.92a.711.711 0 1 0-1.005 1.005l4.977 4.978a.711.711 0 0 0 1.006 0l4.978-4.978a.711.711 0 1 0-1.006-1.006L8.822 7.794 4.347 3.32zM5.77 9.007a.711.711 0 0 1 0 1.006l-1.422 1.422a.711.711 0 0 1-1.005-1.005l1.422-1.423a.711.711 0 0 1 1.005 0zm7.112 0a.711.711 0 1 0-1.006 1.006l1.422 1.422a.711.711 0 0 0 1.006-1.005l-1.422-1.423z"/>
</symbol><symbol id="icon-instagram" viewBox="0 0 16 16">
    <circle cx="12.145" cy="3.892" r=".96"/>
    <path fill-rule="evenodd" clip-rule="evenodd" d="M4 8c0 2.206 1.794 4 4 4s4-1.794 4-4-1.794-4-4-4-4 1.794-4 4zm2 0c0-1.103.897-2 2-2s2 .897 2 2-.897 2-2 2-2-.897-2-2z"/>
    <path fill-rule="evenodd" clip-rule="evenodd" d="M4 16h8c2.056 0 4-1.944 4-4V4c0-2.056-1.944-4-4-4H4C1.944 0 0 1.944 0 4v8c0 2.056 1.944 4 4 4zM2 4c0-.935 1.065-2 2-2h8c.935 0 2 1.065 2 2v8c0 .935-1.065 2-2 2H4c-.953 0-2-1.047-2-2V4z"/>
</symbol><symbol id="icon-message" viewBox="0 0 18 18">
    <path fill-rule="evenodd" clip-rule="evenodd" d="M.5 2.875a2 2 0 0 1 2-2h13a2 2 0 0 1 2 2v10a2 2 0 0 1-2 2h-3.532l-2.2 2.64a1 1 0 0 1-1.536 0l-2.2-2.64H2.5a2 2 0 0 1-2-2v-10zm15 0h-13v10h4a1 1 0 0 1 .768.36L9 15.313l1.732-2.078a1 1 0 0 1 .768-.36h4v-10zm-12 3a1 1 0 0 1 1-1h9a1 1 0 1 1 0 2h-9a1 1 0 0 1-1-1zm1 3a1 1 0 1 0 0 2h9a1 1 0 1 0 0-2h-9z"/>
</symbol><symbol id="icon-phone" viewBox="0 0 17 18">
    <path fill-rule="evenodd" clip-rule="evenodd" d="M6.689 2.978c0-.393.318-.711.71-.711h7.112c.393 0 .711.318.711.71v4.267a.711.711 0 0 1-.711.712H8.822c-.11 0-.22.025-.318.075l-1.815.907v-5.96zm.71-2.134a2.133 2.133 0 0 0-2.132 2.134v7.11a.711.711 0 0 0 1.029.637L8.99 9.378h5.521a2.133 2.133 0 0 0 2.133-2.134V2.978A2.133 2.133 0 0 0 14.511.844H7.4zM2.423 2.267A2.133 2.133 0 0 0 .29 4.4v11.378c0 1.178.955 2.133 2.133 2.133h7.823a2.133 2.133 0 0 0 2.133-2.133V10.8a.711.711 0 0 0-1.422 0v4.978a.711.711 0 0 1-.711.71H2.422a.711.711 0 0 1-.71-.71V4.4c0-.393.318-.711.71-.711h1.423a.711.711 0 0 0 0-1.422H2.422z"/>
</symbol><symbol id="icon-place" viewBox="0 0 18 18">
    <path fill-rule="evenodd" clip-rule="evenodd" d="M9.273.85a.711.711 0 0 0-.9 0L.55 7.25a.711.711 0 0 0 .9 1.1L8.822 2.32l5.85 4.786a.711.711 0 1 0 .901-1.1L9.273.85zM3.845 9.222a.711.711 0 0 0-1.423 0v7.111c0 .393.319.711.711.711h6.4a.711.711 0 1 0 0-1.422H3.845v-6.4zm9.931 0a2.041 2.041 0 0 0-2.11 2.008c.002.242.113.6.36 1.053.238.44.566.9.907 1.328.31.386.62.732.867.996.248-.264.558-.61.867-.996.342-.427.67-.888.908-1.328.246-.453.357-.81.359-1.053a2.042 2.042 0 0 0-2.158-2.008zm2.869 2.003h.71c0 .599-.244 1.21-.53 1.737a10.784 10.784 0 0 1-1.047 1.537 18.529 18.529 0 0 1-1.45 1.602l-.026.025-.008.008-.003.003-.49-.515-.492.515-.003-.003-.007-.008-.027-.025a17.888 17.888 0 0 1-.432-.44c-.276-.29-.646-.697-1.017-1.162-.37-.462-.754-.995-1.048-1.537-.286-.527-.53-1.138-.53-1.737v-.01A3.464 3.464 0 0 1 13.8 7.8a3.464 3.464 0 0 1 3.556 3.416l-.711.01zm-3.336 4.912l.491-.515.491.515a.712.712 0 0 1-.982 0zm.491-4.07a.711.711 0 1 0 0-1.423.711.711 0 0 0 0 1.423z"/>
</symbol><symbol id="icon-profile" viewBox="0 0 17 18">
    <path fill-rule="evenodd" clip-rule="evenodd" d="M8.5.875a4.5 4.5 0 0 0-4.5 4.5v2a4.5 4.5 0 0 0 9 0v-2a4.5 4.5 0 0 0-4.5-4.5zM6 5.375a2.5 2.5 0 0 1 5 0v2a2.5 2.5 0 0 1-5 0v-2zM3.546 12.25a1 1 0 0 0-.968-1.75A5 5 0 0 0 0 14.875v2a1 1 0 0 0 1 1h15a1 1 0 0 0 1-1v-2a5 5 0 0 0-2.578-4.375 1 1 0 1 0-.969 1.75A3 3 0 0 1 15 14.875v1H2v-1a3 3 0 0 1 1.546-2.625z"/>
</symbol><symbol id="icon-send" viewBox="0 0 17 17">
    <path fill-rule="evenodd" clip-rule="evenodd" d="M16.707.668a1 1 0 0 1 .238 1.033l-5 14.5a1 1 0 0 1-1.853.093l-3-6.5a1 1 0 0 1 .2-1.126l3-3a1 1 0 1 1 1.415 1.414L9.2 9.59l1.666 3.608 3.52-10.207L4.178 6.51l2.223 1.025a1 1 0 1 1-.838 1.816L1.081 7.283a1 1 0 0 1 .093-1.853l14.5-5a1 1 0 0 1 1.033.238z"/>
    <symbol id="icon-linkedin"  viewBox="0 0 310 310">
  	<path id="XMLID_802_" d="M72.16,99.73H9.927c-2.762,0-5,2.239-5,5v199.928c0,2.762,2.238,5,5,5H72.16c2.762,0,5-2.238,5-5V104.73
		C77.16,101.969,74.922,99.73,72.16,99.73z"/>
	<path id="XMLID_803_" d="M41.066,0.341C18.422,0.341,0,18.743,0,41.362C0,63.991,18.422,82.4,41.066,82.4
		c22.626,0,41.033-18.41,41.033-41.038C82.1,18.743,63.692,0.341,41.066,0.341z"/>
	<path id="XMLID_804_" d="M230.454,94.761c-24.995,0-43.472,10.745-54.679,22.954V104.73c0-2.761-2.238-5-5-5h-59.599
		c-2.762,0-5,2.239-5,5v199.928c0,2.762,2.238,5,5,5h62.097c2.762,0,5-2.238,5-5v-98.918c0-33.333,9.054-46.319,32.29-46.319
		c25.306,0,27.317,20.818,27.317,48.034v97.204c0,2.762,2.238,5,5,5H305c2.762,0,5-2.238,5-5V194.995
		C310,145.43,300.549,94.761,230.454,94.761z"/>
         <symbol id="icon-facebook"  viewBox="0 0 310 310">
 <path id="XMLID_835_" d="M81.703,165.106h33.981V305c0,2.762,2.238,5,5,5h57.616c2.762,0,5-2.238,5-5V165.765h39.064
		c2.54,0,4.677-1.906,4.967-4.429l5.933-51.502c0.163-1.417-0.286-2.836-1.234-3.899c-0.949-1.064-2.307-1.673-3.732-1.673h-44.996
		V71.978c0-9.732,5.24-14.667,15.576-14.667c1.473,0,29.42,0,29.42,0c2.762,0,5-2.239,5-5V5.037c0-2.762-2.238-5-5-5h-40.545
		C187.467,0.023,186.832,0,185.896,0c-7.035,0-31.488,1.381-50.804,19.151c-21.402,19.692-18.427,43.27-17.716,47.358v37.752H81.703
		c-2.762,0-5,2.238-5,5v50.844C76.703,162.867,78.941,165.106,81.703,165.106z"/>
         <symbol id="icon-twitter"  viewBox="0 0 310 310">
<path id="XMLID_827_" d="M302.973,57.388c-4.87,2.16-9.877,3.983-14.993,5.463c6.057-6.85,10.675-14.91,13.494-23.73
		c0.632-1.977-0.023-4.141-1.648-5.434c-1.623-1.294-3.878-1.449-5.665-0.39c-10.865,6.444-22.587,11.075-34.878,13.783
		c-12.381-12.098-29.197-18.983-46.581-18.983c-36.695,0-66.549,29.853-66.549,66.547c0,2.89,0.183,5.764,0.545,8.598
		C101.163,99.244,58.83,76.863,29.76,41.204c-1.036-1.271-2.632-1.956-4.266-1.825c-1.635,0.128-3.104,1.05-3.93,2.467
		c-5.896,10.117-9.013,21.688-9.013,33.461c0,16.035,5.725,31.249,15.838,43.137c-3.075-1.065-6.059-2.396-8.907-3.977
		c-1.529-0.851-3.395-0.838-4.914,0.033c-1.52,0.871-2.473,2.473-2.513,4.224c-0.007,0.295-0.007,0.59-0.007,0.889
		c0,23.935,12.882,45.484,32.577,57.229c-1.692-0.169-3.383-0.414-5.063-0.735c-1.732-0.331-3.513,0.276-4.681,1.597
		c-1.17,1.32-1.557,3.16-1.018,4.84c7.29,22.76,26.059,39.501,48.749,44.605c-18.819,11.787-40.34,17.961-62.932,17.961
		c-4.714,0-9.455-0.277-14.095-0.826c-2.305-0.274-4.509,1.087-5.294,3.279c-0.785,2.193,0.047,4.638,2.008,5.895
		c29.023,18.609,62.582,28.445,97.047,28.445c67.754,0,110.139-31.95,133.764-58.753c29.46-33.421,46.356-77.658,46.356-121.367
		c0-1.826-0.028-3.67-0.084-5.508c11.623-8.757,21.63-19.355,29.773-31.536c1.237-1.85,1.103-4.295-0.33-5.998
		C307.394,57.037,305.009,56.486,302.973,57.388z"/>
</symbol></svg>